<svg width="61" height="61" viewBox="0 0 61 61" fill="none" xmlns="http://www.w3.org/2000/svg">
<rect width="61" height="61" rx="11" fill="#0059FF"/>
<path fill-rule="evenodd" clip-rule="evenodd" d="M18.1963 13.8449C18.6879 13.349 19.3547 13.0703 20.05 13.0703H35.7789C36.1265 13.0703 36.4599 13.2096 36.7057 13.4576L45.8809 22.7143C46.1267 22.9623 46.2648 23.2986 46.2648 23.6493V44.8074C46.2648 45.5088 45.9886 46.1815 45.497 46.6775C45.0054 47.1735 44.3386 47.4521 43.6433 47.4521H20.05C19.3547 47.4521 18.6879 47.1735 18.1963 46.6775C17.7047 46.1815 17.4285 45.5088 17.4285 44.8074V15.7151C17.4285 15.0136 17.7047 14.3409 18.1963 13.8449ZM35.236 15.7151H34.4681L20.05 15.7151L20.05 44.8074H43.6433V24.9717V24.1971L35.236 15.7151Z" fill="white"/>
<path fill-rule="evenodd" clip-rule="evenodd" d="M35.7789 13.0703C36.5028 13.0703 37.0896 13.6624 37.0896 14.3927V22.327H44.9541C45.678 22.327 46.2648 22.919 46.2648 23.6493C46.2648 24.3797 45.678 24.9717 44.9541 24.9717H43.6433H35.7789C35.055 24.9717 34.4681 24.3797 34.4681 23.6493V15.7151V14.3927C34.4681 13.6624 35.055 13.0703 35.7789 13.0703Z" fill="white"/>
<path d="M34.4681 15.7151L20.05 15.7151L20.05 44.8074H43.6433V24.9717H35.7789C35.055 24.9717 34.4681 24.3797 34.4681 23.6493V15.7151Z" fill="white"/>
<path d="M35.7285 24.1618V15.2891L44.6012 24.1618H35.7285Z" fill="#0059FF"/>
</svg>
